<?xml version="1.0" standalone="no"?><!DOCTYPE svg PUBLIC "-//W3C//DTD SVG 1.1//EN" "http://www.w3.org/Graphics/SVG/1.1/DTD/svg11.dtd"><svg t="1718544144351" class="icon" viewBox="0 0 1024 1024" version="1.1" xmlns="http://www.w3.org/2000/svg" p-id="4369" xmlns:xlink="http://www.w3.org/1999/xlink" width="200" height="200"><path d="M955.36366 278.482917H661.636251l141.101865-141.101865a18.441501 18.441501 0 0 0 0-26.063747l-21.801069-21.801068a18.441501 18.441501 0 0 0-26.063747 0L565.90662 278.482917h-107.81324L269.1267 89.516237a18.441501 18.441501 0 0 0-26.063747 0L221.261884 111.317305a18.405376 18.405376 0 0 0 0 26.063747l141.101865 141.101865H68.63634a17.430018 17.430018 0 0 0-17.430018 17.430018V922.43628a17.430018 17.430018 0 0 0 17.430018 17.44808h886.72732a17.430018 17.430018 0 0 0 17.430018-17.44808V295.912935a17.430018 17.430018 0 0 0-17.430018-17.430018zM468.551391 521.762616h-93.417671v231.629584h-66.505V521.762616h-89.606548v-56.78754h249.529219z m211.887605 231.629584h-64.301413l-121.504383-288.417124h74.741361l80.647699 206.541196 81.875928-206.541196h74.813611z" fill="#C43938" p-id="4370"></path></svg>